<?xml version="1.0" encoding="UTF-8"?>
<svg id="Laag_1" xmlns="http://www.w3.org/2000/svg" version="1.1" viewBox="0 0 156.5 131">
  <!-- Generator: Adobe Illustrator 30.0.0, SVG Export Plug-In . SVG Version: 2.1.1 Build 123)  -->
  <g id="_x38_VNRw9">
    <path d="M116.51.46c-.03,1.6-.25,3.52.97,4.76.23.23,5.5,3.02,5.83,3.07,1.4.23,5.23-.81,7.08-.44.71-2.49,2.47-4.43,4.56-5.9-1.1,6.77,3.18,6.02,6.31,9.14,1.55,1.55,2.39,4.14,3.91,5.81,1.16,1.27,3.95,2.38,3.69,4.11l-1.44,2.59c2.9,1.79,5.99.86,7.91,4.56.96,1.85-.03,10.35-.82,12.51-.55,1.52-1.81,2.16-2.32,3.16-.98,1.9-.03,3.04-2.42,4.55-5.35,3.38-8.95,1.11-14.03,1.92-1.78.28-3.51,1.85-5.74,2.24-4.96.86-6.91-2.31-5.78,4.73s5.48,8.82,1.71,17.1c-1.35,2.95-6.66,7.61-6.83,8.12-.88,2.56-.85,6.54-2.07,9.89-2.89,7.94-9.34,13.69-7.94,23.36.66,4.57,4.58,3.71,6.66,6.79,4.91,7.3-8.06,5.94-11.97,4.49-4.49-1.67-3.03-4.95-3.92-8.53-.65-2.63-2.71-3.19-1.55-6.96.26-.86,2.26-3.17,2.26-3.71v-10.71c-3.45,1.68-7.45,2.19-11.24,2.01-2.7-.12-8.58-2.15-9.93-2.02-1.26.12-4.49,4.71-4.99,5.99-1.07,2.75-1.28,15.49-.14,18.06,1.27,2.83,5.42,4.5,4.3,8.27-3.18.61-13.87,2.36-15.83-.23-.56-.75-1.46-4.46-1.45-5.44.02-1.85,2.12-5.04,1.86-5.9-.19-.61-1.39-.91-1.9-1.63-1.11-1.57-2.43-6.99-3.61-9.35s-5.91-8.3-5.78-10.44c.08-1.3,1.42-3.1.85-4.8-1.7-.17-.88,2.08-2.2,3.02-2.63,1.87-6.88-.79-8.51-3.02-5.27,7.71-15.67,5.23-20.59,12.78-.96,1.47-1.47,3.58-2.57,4.9-1.91,2.29-7.58,4.64-5.73,8.7.89,1.96,3.64,1.75,4.96,5,2.39,5.9-3.52,4.77-7.96,4.47-5.02-.34-8.04-.39-9-5.95-1.6-9.26,3.04-9.68,6.2-16.28,1.44-3.02,1.69-6.83,3.28-9.68.77-1.38,2.12-2.18,2.64-3.34.91-2.03,1.04-6.75,1.88-9.58,1.98-6.71,6.48-13.19,12.05-17.35,1.4-1.05,3.62-1.74,4.68-2.79,1.41-1.4,2.06-4.63,3.96-6.5,2.43-2.38,4.72-1.28,4.45-5.91-.39-6.59-7.66-6.63-10.66-11.3-1.12-1.74-1.9-4.03-.29-5.72.83-.72,1,.15,1.42.6,1.29,1.37,2.24,2.94,3.9,4.07,5.17,3.5,13.72,2.55,13.63,11.04,5.45-1.51,12.88-.72,17.94-3.23,2.81-1.4,5.54-6.33,8.5-8.44,2.13-1.52,6.38-2.16,7.31-2.91s3.59-5.38,4.86-6.84c5.52-6.34,12.11-12.03,20.23-14.65L116.01.46h.5Z" fill="#717179"/>
  </g>
</svg>

